<svg id="svg" version="1.1" xmlns="http://www.w3.org/2000/svg" xmlns:xlink="http://www.w3.org/1999/xlink" width="400" height="400" viewBox="0, 0, 400,400"><g id="svgg"><path id="path0" d="M185.158 5.032 C 183.786 5.275,181.641 8.399,181.641 10.154 C 181.641 10.494,181.289 11.462,180.859 12.305 C 180.430 13.147,180.077 14.195,180.076 14.633 C 180.074 15.071,179.724 15.957,179.297 16.602 C 178.870 17.246,178.518 18.213,178.516 18.750 C 178.513 19.287,178.161 20.254,177.734 20.898 C 177.308 21.543,176.956 22.510,176.953 23.047 C 176.950 23.584,176.599 24.551,176.172 25.195 C 175.745 25.840,175.395 26.811,175.393 27.354 C 175.392 27.898,175.100 28.757,174.744 29.265 C 174.388 29.773,173.948 30.985,173.767 31.959 C 173.585 32.933,173.194 34.007,172.898 34.345 C 172.603 34.684,172.243 35.782,172.099 36.784 C 171.955 37.787,171.582 38.820,171.270 39.078 C 170.958 39.337,170.703 40.013,170.703 40.581 C 170.703 41.149,170.377 42.226,169.979 42.975 C 169.581 43.723,169.127 45.039,168.970 45.898 C 168.812 46.758,168.457 47.725,168.180 48.047 C 167.904 48.369,167.554 49.316,167.405 50.151 C 167.255 50.985,166.793 52.301,166.379 53.075 C 165.964 53.848,165.625 54.842,165.625 55.283 C 165.625 55.724,165.273 56.774,164.844 57.617 C 164.414 58.460,164.063 59.618,164.063 60.191 C 164.063 60.764,163.803 61.447,163.487 61.710 C 163.170 61.973,162.808 62.829,162.681 63.613 C 162.555 64.398,162.110 65.761,161.694 66.644 C 161.278 67.527,160.938 68.656,160.938 69.153 C 160.938 69.649,160.674 70.347,160.352 70.702 C 160.031 71.058,159.619 72.145,159.437 73.119 C 159.255 74.093,158.815 75.305,158.459 75.813 C 158.103 76.321,157.813 77.183,157.813 77.729 C 157.813 78.276,157.488 79.335,157.091 80.084 C 156.695 80.833,156.263 82.126,156.132 82.959 C 156.000 83.791,155.645 84.758,155.342 85.107 C 155.039 85.456,154.672 86.529,154.526 87.490 C 154.379 88.451,154.028 89.506,153.744 89.834 C 153.461 90.161,153.114 91.189,152.973 92.117 C 152.832 93.046,152.476 94.188,152.183 94.656 C 151.890 95.125,151.530 96.193,151.383 97.030 C 151.235 97.867,150.877 98.922,150.586 99.374 C 150.296 99.826,149.937 100.898,149.790 101.758 C 149.642 102.617,149.282 103.703,148.989 104.172 C 148.695 104.640,148.340 105.783,148.199 106.711 C 148.058 107.639,147.711 108.667,147.428 108.995 C 147.144 109.322,146.793 110.377,146.646 111.338 C 146.500 112.300,146.133 113.371,145.831 113.720 C 145.528 114.069,145.143 115.225,144.975 116.290 C 144.807 117.355,144.374 118.647,144.014 119.161 C 143.654 119.675,143.359 120.585,143.359 121.182 C 143.359 121.780,143.008 122.924,142.578 123.726 C 142.148 124.528,141.797 125.677,141.797 126.279 C 141.797 126.882,141.445 128.064,141.016 128.906 C 140.586 129.749,140.234 130.891,140.234 131.445 C 140.234 132.000,139.908 133.105,139.508 133.902 C 139.109 134.699,138.661 136.138,138.513 137.099 C 138.365 138.060,138.012 139.115,137.729 139.443 C 137.446 139.771,137.102 140.905,136.965 141.964 C 136.827 143.022,136.471 144.165,136.173 144.503 C 135.875 144.841,135.509 146.031,135.360 147.148 C 135.210 148.265,134.855 149.373,134.570 149.609 C 134.285 149.846,133.930 150.953,133.781 152.070 C 133.632 153.188,133.266 154.378,132.968 154.716 C 132.670 155.054,132.316 156.197,132.182 157.255 C 132.048 158.314,131.692 159.574,131.391 160.056 C 131.091 160.537,130.739 161.768,130.610 162.790 C 130.481 163.812,130.137 165.032,129.845 165.500 C 129.553 165.968,129.208 167.111,129.078 168.039 C 128.948 168.967,128.505 170.550,128.093 171.557 C 127.681 172.563,127.338 173.882,127.330 174.486 C 127.323 175.091,126.978 176.289,126.563 177.148 C 126.147 178.008,125.796 179.238,125.781 179.883 C 125.767 180.527,125.415 181.758,125.000 182.617 C 124.585 183.477,124.235 184.707,124.223 185.352 C 124.211 185.996,123.854 187.290,123.429 188.226 C 123.004 189.163,122.656 190.484,122.656 191.162 C 122.656 191.840,122.331 193.007,121.934 193.756 C 121.537 194.505,121.109 196.142,120.982 197.394 C 120.856 198.646,120.506 200.052,120.204 200.519 C 119.901 200.985,119.541 202.468,119.403 203.814 C 119.265 205.160,118.904 206.654,118.601 207.134 C 118.299 207.615,117.927 209.062,117.775 210.351 C 117.622 211.640,117.270 213.134,116.992 213.672 C 116.714 214.209,116.362 215.704,116.210 216.993 C 116.058 218.281,115.685 219.729,115.383 220.209 C 115.080 220.690,114.727 222.184,114.597 223.530 C 114.467 224.875,114.101 226.391,113.783 226.899 C 113.466 227.406,113.060 229.251,112.881 231.000 C 112.702 232.749,112.287 234.883,111.959 235.742 C 111.631 236.602,111.355 238.190,111.345 239.271 C 111.336 240.353,110.977 242.238,110.547 243.461 C 110.117 244.683,109.766 246.544,109.766 247.596 C 109.766 248.647,109.414 250.608,108.984 251.953 C 108.031 254.938,107.866 260.141,108.748 259.409 C 109.048 259.160,109.404 258.365,109.540 257.643 C 109.675 256.920,110.027 256.129,110.321 255.885 C 110.615 255.641,110.967 254.850,111.102 254.127 C 111.238 253.404,111.589 252.613,111.884 252.369 C 112.178 252.125,112.529 251.334,112.665 250.611 C 112.800 249.889,113.159 249.092,113.462 248.840 C 113.765 248.589,114.123 247.880,114.258 247.266 C 114.393 246.651,114.744 245.948,115.039 245.703 C 115.334 245.459,115.691 244.731,115.832 244.087 C 115.974 243.443,116.321 242.827,116.603 242.719 C 116.886 242.610,117.232 242.065,117.372 241.506 C 117.512 240.948,117.967 240.058,118.384 239.529 C 118.800 239.000,119.141 238.266,119.141 237.898 C 119.141 237.531,119.492 236.912,119.922 236.523 C 120.352 236.135,120.703 235.519,120.703 235.155 C 120.703 234.792,121.055 234.089,121.484 233.594 C 121.914 233.098,122.266 232.396,122.266 232.032 C 122.266 231.669,122.617 231.053,123.047 230.664 C 123.477 230.275,123.828 229.748,123.828 229.492 C 123.828 229.237,124.180 228.709,124.609 228.320 C 125.039 227.931,125.391 227.437,125.391 227.222 C 125.391 227.007,126.885 224.601,128.711 221.875 C 130.537 219.149,132.031 216.755,132.031 216.554 C 132.031 216.354,132.383 215.888,132.813 215.520 C 133.242 215.152,133.594 214.586,133.594 214.262 C 133.594 213.937,133.765 213.672,133.974 213.672 C 134.184 213.672,134.606 213.188,134.912 212.598 C 135.218 212.007,136.102 210.873,136.875 210.078 C 137.648 209.283,138.281 208.454,138.281 208.236 C 138.281 208.018,138.633 207.652,139.063 207.422 C 139.492 207.192,139.844 206.755,139.844 206.451 C 139.844 206.147,140.065 205.758,140.334 205.586 C 140.604 205.414,141.349 204.570,141.990 203.711 C 144.060 200.936,154.071 191.280,157.380 188.867 C 159.147 187.578,161.032 186.128,161.567 185.645 C 162.102 185.161,162.795 184.766,163.106 184.766 C 163.417 184.766,163.672 184.592,163.672 184.380 C 163.672 184.168,164.243 183.728,164.941 183.401 C 165.640 183.074,166.914 182.377,167.773 181.852 C 168.633 181.327,169.775 180.698,170.313 180.455 C 170.850 180.212,171.939 179.676,172.734 179.265 C 173.528 178.853,174.495 178.514,174.882 178.513 C 175.269 178.512,176.113 178.161,176.758 177.734 C 177.402 177.308,178.306 176.957,178.766 176.956 C 179.226 176.954,180.368 176.605,181.305 176.180 C 182.242 175.755,183.673 175.404,184.485 175.399 C 185.298 175.394,186.616 175.104,187.415 174.755 C 189.947 173.645,201.183 173.518,203.823 174.569 C 204.959 175.021,206.250 175.391,206.691 175.391 C 207.133 175.391,207.941 175.742,208.487 176.172 C 209.033 176.602,209.886 176.953,210.381 176.953 C 210.877 176.953,211.388 177.125,211.518 177.334 C 211.647 177.544,212.684 178.333,213.821 179.088 C 216.286 180.724,220.313 184.841,220.313 185.725 C 220.313 186.070,220.576 186.454,220.898 186.577 C 221.221 186.701,221.484 187.013,221.484 187.271 C 221.484 187.528,221.924 188.334,222.461 189.062 C 222.998 189.791,223.438 190.734,223.438 191.158 C 223.438 191.583,223.709 192.230,224.040 192.597 C 224.372 192.963,224.740 193.943,224.859 194.776 C 224.977 195.608,225.394 197.168,225.784 198.242 C 226.174 199.316,226.688 201.777,226.925 203.711 C 227.163 205.645,227.545 208.369,227.774 209.766 C 228.362 213.337,227.931 227.423,227.171 229.492 C 226.855 230.352,226.589 232.379,226.580 233.997 C 226.570 235.615,226.288 237.900,225.953 239.075 C 225.618 240.250,225.196 242.881,225.017 244.922 C 224.833 247.011,224.404 249.188,224.035 249.902 C 222.715 252.461,223.906 253.144,226.969 251.584 C 227.729 251.196,228.957 250.746,229.697 250.584 C 230.438 250.421,231.397 250.065,231.830 249.792 C 232.263 249.519,233.232 249.173,233.984 249.023 C 234.736 248.874,235.706 248.528,236.139 248.255 C 236.571 247.982,237.538 247.624,238.287 247.460 C 239.036 247.296,240.261 246.833,241.010 246.432 C 241.759 246.031,242.682 245.703,243.062 245.703 C 243.442 245.703,244.409 245.352,245.210 244.922 C 246.012 244.492,247.067 244.141,247.554 244.141 C 248.042 244.141,249.096 243.789,249.898 243.359 C 250.700 242.930,251.800 242.578,252.344 242.578 C 252.887 242.578,253.988 242.227,254.790 241.797 C 255.591 241.367,256.731 241.014,257.323 241.013 C 257.914 241.012,258.926 240.661,259.570 240.234 C 260.215 239.808,261.182 239.455,261.719 239.450 C 264.351 239.429,265.395 237.669,266.201 231.894 C 266.347 230.852,266.803 229.445,267.216 228.769 C 267.628 228.092,267.966 227.244,267.967 226.883 C 267.968 226.523,268.224 225.973,268.535 225.661 C 268.847 225.349,269.214 224.647,269.352 224.099 C 269.489 223.552,269.937 222.801,270.348 222.429 C 270.758 222.058,271.094 221.576,271.094 221.359 C 271.094 221.142,271.341 220.686,271.642 220.345 C 273.102 218.699,278.103 213.788,278.939 213.180 C 279.458 212.803,280.488 212.056,281.228 211.520 C 281.968 210.985,282.819 210.547,283.120 210.547 C 283.420 210.547,284.113 210.195,284.659 209.766 C 285.205 209.336,286.027 208.984,286.484 208.984 C 286.942 208.984,287.972 208.633,288.774 208.203 C 290.888 207.070,300.193 207.070,302.539 208.203 C 303.398 208.618,304.453 208.967,304.883 208.978 C 307.454 209.045,311.328 213.440,311.328 216.290 C 311.328 217.788,311.025 218.644,309.406 221.719 C 307.353 225.618,303.131 229.568,296.094 234.174 C 293.838 235.650,291.816 237.065,291.600 237.318 C 291.384 237.570,290.773 237.915,290.240 238.084 C 289.708 238.253,288.830 238.681,288.289 239.035 C 286.698 240.077,285.804 240.601,284.766 241.101 C 284.229 241.359,283.370 241.885,282.857 242.270 C 282.345 242.654,281.516 242.969,281.016 242.969 C 279.194 242.969,278.661 248.406,280.188 251.419 C 280.500 252.035,280.871 253.181,281.013 253.965 C 281.155 254.749,281.530 255.605,281.846 255.868 C 282.163 256.131,282.422 256.573,282.422 256.851 C 282.422 257.669,287.467 263.281,288.202 263.281 C 288.394 263.281,288.853 263.615,289.223 264.024 C 289.592 264.432,290.543 264.887,291.334 265.033 C 292.126 265.180,293.100 265.593,293.498 265.951 C 294.539 266.885,305.264 266.886,306.690 265.952 C 307.210 265.611,308.599 265.205,309.775 265.051 C 310.952 264.896,312.297 264.527,312.765 264.230 C 313.234 263.933,314.329 263.576,315.200 263.437 C 316.070 263.298,316.979 262.947,317.219 262.657 C 317.460 262.367,318.298 262.016,319.082 261.877 C 319.866 261.738,321.056 261.294,321.726 260.890 C 322.396 260.486,323.275 260.155,323.679 260.154 C 324.083 260.152,324.941 259.802,325.586 259.375 C 326.230 258.948,327.082 258.598,327.477 258.596 C 327.873 258.595,328.644 258.242,329.190 257.813 C 329.737 257.383,330.488 257.031,330.859 257.031 C 331.231 257.031,331.982 256.680,332.528 256.250 C 333.075 255.820,333.723 255.469,333.969 255.469 C 334.214 255.469,335.066 255.132,335.860 254.720 C 336.655 254.308,337.744 253.782,338.281 253.551 C 338.818 253.320,339.521 252.972,339.844 252.779 C 340.166 252.585,340.869 252.234,341.406 251.998 C 341.943 251.761,342.646 251.410,342.969 251.216 C 343.291 251.023,343.994 250.667,344.531 250.425 C 345.068 250.183,346.211 249.558,347.070 249.036 C 347.930 248.514,349.072 247.902,349.609 247.677 C 350.146 247.451,350.850 247.087,351.172 246.867 C 351.494 246.648,352.355 246.195,353.084 245.862 C 353.814 245.528,354.661 245.004,354.968 244.698 C 355.274 244.391,355.853 244.141,356.255 244.141 C 356.657 244.141,357.103 243.950,357.247 243.718 C 357.390 243.485,358.236 242.960,359.125 242.551 C 360.782 241.789,361.513 241.375,363.363 240.152 C 363.945 239.768,364.665 239.453,364.963 239.453 C 365.260 239.453,365.822 239.102,366.211 238.672 C 366.600 238.242,367.221 237.891,367.591 237.891 C 367.961 237.891,368.491 237.617,368.769 237.282 C 369.046 236.947,369.815 236.424,370.477 236.118 C 371.729 235.540,371.875 235.454,375.389 233.208 C 376.569 232.453,377.976 231.610,378.514 231.333 C 379.052 231.057,380.195 230.399,381.055 229.871 C 381.914 229.344,383.148 228.661,383.797 228.355 C 385.792 227.414,386.387 226.483,386.109 224.741 C 385.751 222.505,386.449 222.081,390.587 222.023 L 393.945 221.976 394.229 216.359 C 394.386 213.270,394.693 209.673,394.913 208.366 C 395.493 204.917,395.380 193.411,394.722 188.867 C 394.410 186.719,394.152 183.196,394.148 181.039 C 394.144 178.821,393.883 176.130,393.549 174.844 C 393.223 173.594,392.810 170.838,392.631 168.721 C 392.452 166.603,392.094 164.616,391.835 164.304 C 391.577 163.992,391.208 162.214,391.016 160.352 C 390.823 158.489,390.462 156.720,390.213 156.419 C 389.963 156.119,389.612 154.559,389.432 152.955 C 389.252 151.350,388.852 149.633,388.544 149.139 C 388.235 148.646,387.866 147.456,387.723 146.495 C 387.580 145.533,387.231 144.479,386.948 144.151 C 386.665 143.823,386.321 142.689,386.183 141.630 C 386.046 140.572,385.692 139.429,385.397 139.091 C 385.102 138.753,384.736 137.598,384.583 136.523 C 384.431 135.449,384.077 134.307,383.798 133.984 C 383.519 133.662,383.172 132.844,383.029 132.167 C 382.885 131.490,382.426 130.266,382.009 129.448 C 381.591 128.629,381.250 127.667,381.250 127.309 C 381.250 126.951,380.998 126.449,380.689 126.193 C 380.381 125.937,380.010 125.168,379.866 124.485 C 379.721 123.801,379.271 122.694,378.864 122.024 C 378.458 121.354,378.125 120.503,378.125 120.133 C 378.125 119.762,377.773 119.012,377.344 118.466 C 376.914 117.920,376.563 117.081,376.563 116.602 C 376.563 116.122,376.248 115.311,375.863 114.799 C 375.479 114.286,374.953 113.428,374.694 112.891 C 374.436 112.354,374.047 111.606,373.831 111.230 C 373.615 110.854,373.260 110.239,373.042 109.863 C 372.824 109.487,372.295 108.477,371.864 107.617 C 371.434 106.758,370.655 105.352,370.132 104.492 C 369.609 103.633,368.996 102.490,368.770 101.953 C 368.545 101.416,368.181 100.713,367.962 100.391 C 367.743 100.068,367.346 99.365,367.081 98.828 C 366.413 97.476,365.171 95.654,364.355 94.831 C 363.979 94.451,363.672 93.886,363.672 93.574 C 363.672 93.263,363.445 92.867,363.169 92.695 C 362.892 92.523,362.105 91.504,361.421 90.430 C 360.737 89.355,360.037 88.301,359.866 88.086 C 359.695 87.871,358.994 86.816,358.308 85.742 C 357.622 84.668,356.790 83.511,356.460 83.170 C 356.130 82.830,355.859 82.355,355.859 82.116 C 355.859 81.876,355.614 81.539,355.313 81.367 C 354.875 81.117,351.228 76.773,346.875 71.316 C 345.671 69.806,329.431 53.627,327.930 52.441 C 325.642 50.633,321.341 47.148,320.685 46.570 C 320.373 46.295,319.502 45.531,318.750 44.873 C 317.627 43.890,311.581 39.660,309.039 38.078 C 308.687 37.859,307.626 37.156,306.682 36.515 C 305.739 35.875,304.659 35.169,304.283 34.946 C 303.907 34.722,303.298 34.290,302.930 33.984 C 302.140 33.329,301.155 32.740,299.023 31.648 C 298.164 31.208,296.758 30.428,295.898 29.914 C 295.039 29.400,293.105 28.344,291.602 27.567 C 288.695 26.066,287.893 25.612,286.313 24.576 C 285.767 24.219,284.768 23.805,284.094 23.657 C 283.419 23.509,282.666 23.146,282.422 22.852 C 282.177 22.557,281.418 22.198,280.735 22.053 C 280.051 21.909,278.944 21.458,278.274 21.052 C 277.604 20.645,276.703 20.313,276.271 20.313 C 275.840 20.313,275.277 20.060,275.021 19.752 C 274.765 19.443,273.996 19.073,273.313 18.928 C 272.629 18.784,271.522 18.333,270.852 17.927 C 270.182 17.520,269.317 17.188,268.930 17.188 C 268.543 17.188,267.926 16.917,267.561 16.586 C 267.195 16.255,266.025 15.846,264.960 15.678 C 263.895 15.510,262.603 15.077,262.089 14.717 C 261.575 14.357,260.534 14.061,259.776 14.060 C 259.019 14.059,257.871 13.708,257.227 13.281 C 256.582 12.854,255.525 12.504,254.877 12.503 C 254.229 12.501,253.043 12.148,252.242 11.719 C 251.440 11.289,250.257 10.937,249.612 10.937 C 248.968 10.937,247.429 10.602,246.193 10.192 C 244.957 9.783,242.842 9.345,241.494 9.221 C 240.146 9.096,238.564 8.752,237.978 8.455 C 237.393 8.158,235.634 7.793,234.070 7.644 C 232.506 7.494,230.661 7.140,229.969 6.856 C 229.255 6.563,226.176 6.222,222.852 6.069 C 219.629 5.920,216.000 5.548,214.787 5.243 C 212.503 4.668,188.196 4.494,185.158 5.032 M164.063 7.787 C 162.881 7.922,161.552 8.234,161.110 8.482 C 160.668 8.729,159.174 9.103,157.790 9.313 C 156.406 9.522,154.570 9.966,153.711 10.299 C 152.852 10.631,151.596 10.911,150.922 10.920 C 150.247 10.930,148.928 11.285,147.992 11.710 C 147.055 12.135,145.674 12.488,144.922 12.494 C 144.170 12.500,143.027 12.854,142.383 13.281 C 141.738 13.708,140.684 14.060,140.039 14.063 C 139.395 14.065,138.340 14.417,137.695 14.844 C 137.051 15.271,136.084 15.622,135.547 15.625 C 135.010 15.628,134.043 15.979,133.398 16.406 C 132.754 16.833,131.806 17.184,131.293 17.185 C 130.779 17.186,129.549 17.558,128.558 18.011 C 127.568 18.464,126.011 19.167,125.098 19.574 C 124.185 19.980,122.690 20.653,121.777 21.069 C 120.864 21.485,119.238 22.208,118.164 22.675 C 117.090 23.141,115.332 23.928,114.258 24.422 C 113.184 24.917,112.041 25.433,111.719 25.570 C 111.396 25.707,110.430 26.248,109.570 26.774 C 108.711 27.299,107.480 28.006,106.836 28.344 C 106.191 28.683,104.961 29.386,104.102 29.907 C 103.242 30.428,101.942 31.132,101.213 31.472 C 100.483 31.811,99.636 32.340,99.329 32.646 C 99.023 32.953,98.557 33.203,98.294 33.203 C 97.836 33.203,97.288 33.566,94.984 35.396 C 94.413 35.850,93.550 36.345,93.066 36.496 C 92.583 36.648,92.188 36.926,92.188 37.114 C 92.188 37.303,91.767 37.687,91.252 37.967 C 89.544 38.898,82.637 43.660,81.359 44.788 C 78.373 47.423,76.430 49.046,75.886 49.360 C 75.565 49.546,74.993 49.985,74.615 50.337 C 74.237 50.689,73.160 51.592,72.221 52.344 C 70.368 53.827,56.062 67.999,53.946 70.447 C 52.578 72.030,46.918 78.826,46.412 79.492 C 46.249 79.707,45.672 80.392,45.128 81.014 C 44.585 81.636,44.141 82.274,44.141 82.432 C 44.141 82.590,43.394 83.690,42.480 84.876 C 41.567 86.063,40.557 87.422,40.234 87.897 C 39.271 89.316,37.590 91.556,36.949 92.275 C 36.618 92.646,36.237 93.393,36.100 93.935 C 35.964 94.478,35.698 94.922,35.510 94.922 C 35.321 94.922,34.895 95.493,34.562 96.191 C 34.229 96.890,33.527 98.164,33.002 99.023 C 32.477 99.883,31.833 101.025,31.573 101.563 C 31.312 102.100,30.841 102.848,30.526 103.225 C 29.860 104.022,29.124 105.256,28.489 106.641 C 28.243 107.178,27.883 107.881,27.690 108.203 C 27.496 108.525,27.145 109.229,26.909 109.766 C 26.672 110.303,26.321 111.006,26.127 111.328 C 25.934 111.650,25.601 112.310,25.388 112.793 C 25.175 113.276,24.825 114.067,24.612 114.551 C 24.399 115.034,24.066 115.693,23.873 116.016 C 23.679 116.338,23.328 117.041,23.091 117.578 C 22.855 118.115,22.515 118.818,22.335 119.141 C 21.067 121.415,20.313 123.101,20.313 123.664 C 20.313 124.026,19.982 124.870,19.579 125.540 C 19.175 126.210,18.731 127.399,18.592 128.183 C 18.453 128.967,18.099 129.808,17.806 130.051 C 17.512 130.295,17.157 131.265,17.016 132.207 C 16.874 133.150,16.522 134.117,16.233 134.357 C 15.943 134.597,15.587 135.446,15.442 136.244 C 15.296 137.042,14.923 138.089,14.612 138.571 C 14.302 139.053,13.943 140.284,13.813 141.306 C 13.684 142.328,13.333 143.558,13.032 144.040 C 12.732 144.522,12.376 145.752,12.243 146.774 C 12.109 147.797,11.742 149.144,11.426 149.769 C 11.111 150.394,10.712 151.800,10.540 152.894 C 10.368 153.988,9.955 155.586,9.623 156.445 C 9.290 157.305,9.011 158.935,9.002 160.068 C 8.992 161.202,8.633 163.129,8.203 164.352 C 7.773 165.574,7.422 167.475,7.422 168.577 C 7.422 169.678,7.145 171.442,6.807 172.497 C 6.412 173.726,6.071 177.005,5.854 181.641 C 5.669 185.615,5.335 189.658,5.112 190.625 C 4.595 192.865,4.566 205.043,5.071 207.838 C 5.281 209.006,5.606 213.394,5.792 217.590 C 5.994 222.137,6.320 225.573,6.601 226.097 C 6.859 226.580,7.166 228.509,7.282 230.382 C 7.398 232.256,7.829 234.801,8.239 236.037 C 8.649 237.273,8.984 239.086,8.984 240.066 C 8.984 241.046,9.321 242.671,9.733 243.678 C 10.145 244.684,10.578 246.453,10.697 247.608 C 10.815 248.763,11.154 250.081,11.449 250.538 C 11.744 250.994,12.098 252.203,12.236 253.226 C 12.373 254.248,12.736 255.478,13.042 255.960 C 13.347 256.442,13.717 257.750,13.864 258.867 C 14.011 259.984,14.360 261.088,14.640 261.321 C 14.920 261.554,15.265 262.515,15.406 263.457 C 15.548 264.400,15.899 265.366,16.188 265.606 C 16.476 265.845,16.828 266.812,16.969 267.754 C 17.110 268.696,17.467 269.668,17.762 269.912 C 18.057 270.157,18.414 271.040,18.555 271.875 C 18.696 272.710,19.050 273.591,19.341 273.833 C 19.633 274.075,19.990 274.832,20.134 275.515 C 20.279 276.199,20.729 277.306,21.136 277.976 C 21.542 278.646,21.875 279.497,21.875 279.867 C 21.875 280.238,22.227 280.988,22.656 281.534 C 23.086 282.080,23.437 282.831,23.437 283.203 C 23.437 283.575,23.789 284.326,24.219 284.872 C 24.648 285.418,25.000 286.122,25.000 286.435 C 25.000 286.748,25.352 287.451,25.781 287.997 C 26.211 288.543,26.563 289.247,26.563 289.560 C 26.563 289.873,26.914 290.576,27.344 291.122 C 27.773 291.668,28.125 292.374,28.125 292.690 C 28.125 293.005,28.399 293.491,28.734 293.769 C 29.068 294.046,29.597 294.815,29.908 295.477 C 30.220 296.138,30.904 297.383,31.428 298.242 C 31.953 299.102,32.550 300.168,32.755 300.612 C 33.083 301.319,33.613 302.161,35.652 305.212 C 35.916 305.608,36.528 306.477,37.012 307.144 C 37.495 307.810,37.891 308.557,37.891 308.804 C 37.891 309.052,38.242 309.572,38.672 309.961 C 39.102 310.350,39.453 310.904,39.453 311.193 C 39.453 311.482,39.612 311.719,39.805 311.719 C 40.111 311.719,40.633 312.429,42.383 315.225 C 42.598 315.568,42.995 316.106,43.265 316.421 C 43.535 316.735,44.632 318.135,45.703 319.531 C 46.774 320.928,47.793 322.246,47.967 322.461 C 48.724 323.396,52.936 328.360,53.305 328.752 C 53.528 328.990,54.766 330.383,56.055 331.848 C 59.937 336.260,66.797 342.948,71.094 346.509 C 72.490 347.666,74.324 349.274,75.169 350.081 C 76.506 351.358,77.868 351.930,76.634 350.697 C 75.964 350.026,76.057 344.195,76.758 342.969 C 77.065 342.432,77.322 341.374,77.330 340.619 C 77.338 339.864,77.695 338.590,78.125 337.789 C 78.555 336.987,78.906 336.166,78.906 335.964 C 78.906 335.432,79.570 334.014,80.654 332.227 C 81.176 331.367,81.828 330.225,82.104 329.688 C 85.058 323.930,97.797 311.454,105.437 306.836 C 105.793 306.621,106.341 306.228,106.655 305.963 C 108.543 304.369,109.673 303.590,110.449 303.347 C 110.933 303.196,111.328 302.903,111.328 302.696 C 111.328 302.489,111.636 302.212,112.012 302.082 C 112.388 301.952,114.380 300.727,116.440 299.360 C 118.499 297.993,120.361 296.875,120.578 296.875 C 120.795 296.875,121.291 296.523,121.680 296.094 C 122.069 295.664,122.717 295.312,123.120 295.312 C 123.523 295.313,123.951 295.057,124.070 294.745 C 124.190 294.434,124.888 293.980,125.620 293.739 C 126.353 293.497,126.953 293.154,126.953 292.977 C 126.953 292.800,127.437 292.452,128.027 292.203 C 129.492 291.588,131.556 290.422,132.351 289.760 C 132.712 289.460,133.447 289.005,133.984 288.750 C 134.521 288.495,135.225 288.129,135.547 287.935 C 135.869 287.742,136.572 287.385,137.109 287.143 C 137.646 286.901,138.789 286.276,139.648 285.753 C 140.508 285.230,141.475 284.692,141.797 284.557 C 143.102 284.010,144.020 283.533,145.508 282.630 C 146.367 282.108,147.510 281.496,148.047 281.270 C 148.584 281.045,149.287 280.683,149.609 280.466 C 149.932 280.250,150.635 279.879,151.172 279.643 C 151.709 279.407,152.412 279.055,152.734 278.862 C 153.057 278.668,153.760 278.317,154.297 278.080 C 154.834 277.844,155.537 277.493,155.859 277.299 C 156.182 277.106,156.885 276.758,157.422 276.527 C 157.959 276.296,159.048 275.770,159.843 275.358 C 160.638 274.946,161.489 274.609,161.735 274.609 C 161.980 274.609,162.628 274.258,163.175 273.828 C 163.721 273.398,164.474 273.047,164.849 273.047 C 165.223 273.047,165.747 272.784,166.013 272.464 C 166.279 272.143,167.224 271.687,168.112 271.451 C 169.000 271.214,169.990 270.793,170.313 270.515 C 170.635 270.237,171.458 269.890,172.141 269.745 C 172.824 269.600,173.578 269.247,173.815 268.961 C 174.052 268.675,174.838 268.330,175.561 268.195 C 176.283 268.059,177.090 267.689,177.352 267.372 C 177.615 267.056,178.116 266.795,178.466 266.793 C 178.815 266.791,179.980 266.357,181.055 265.829 C 182.129 265.301,183.228 264.863,183.498 264.856 C 183.767 264.849,184.643 264.492,185.445 264.063 C 186.247 263.633,187.279 263.281,187.739 263.281 C 188.200 263.281,188.791 263.022,189.054 262.706 C 189.317 262.389,190.173 262.016,190.957 261.877 C 191.741 261.738,192.931 261.294,193.601 260.890 C 194.271 260.486,195.237 260.155,195.749 260.154 C 196.261 260.152,197.207 259.802,197.852 259.375 C 198.496 258.948,199.420 258.598,199.904 258.596 C 200.388 258.595,201.440 258.242,202.242 257.813 C 203.043 257.383,204.229 257.029,204.877 257.025 C 206.839 257.015,208.594 254.726,208.594 252.175 C 208.594 251.381,208.931 249.907,209.342 248.901 C 209.754 247.894,210.185 246.145,210.301 245.013 C 210.417 243.882,210.783 242.568,211.115 242.094 C 211.447 241.620,211.726 240.524,211.736 239.659 C 211.745 238.794,212.026 237.383,212.360 236.523 C 212.694 235.664,213.134 233.643,213.337 232.031 C 213.540 230.420,213.949 228.470,214.247 227.699 C 214.544 226.928,214.905 224.555,215.049 222.426 C 215.193 220.297,215.557 217.445,215.858 216.089 C 216.597 212.767,216.608 201.454,215.875 199.366 C 215.583 198.533,215.215 196.797,215.058 195.508 C 214.901 194.219,214.548 192.900,214.274 192.578 C 214.001 192.256,213.661 191.504,213.519 190.908 C 212.896 188.285,207.052 182.031,205.225 182.031 C 204.928 182.031,204.029 181.680,203.227 181.250 C 201.611 180.384,189.586 180.091,186.719 180.848 C 182.424 181.983,179.951 182.784,179.571 183.164 C 179.334 183.400,178.780 183.597,178.340 183.600 C 177.899 183.604,176.572 184.128,175.391 184.765 C 174.209 185.401,172.495 186.286,171.582 186.729 C 170.669 187.173,169.922 187.685,169.922 187.867 C 169.922 188.048,169.438 188.318,168.848 188.466 C 168.257 188.614,167.486 189.029,167.135 189.387 C 166.784 189.746,165.936 190.479,165.250 191.016 C 164.564 191.553,163.638 192.300,163.192 192.676 C 162.746 193.052,162.235 193.359,162.056 193.359 C 161.763 193.359,150.143 204.855,149.027 206.250 C 148.769 206.572,147.345 208.348,145.861 210.196 C 144.378 212.044,142.900 213.954,142.578 214.440 C 141.666 215.814,139.924 218.100,139.267 218.783 C 138.940 219.123,138.672 219.538,138.672 219.705 C 138.672 220.215,136.218 223.828,135.872 223.828 C 135.693 223.828,135.546 224.048,135.544 224.316 C 135.543 224.585,134.753 225.947,133.789 227.344 C 132.825 228.740,132.035 230.094,132.034 230.352 C 132.032 230.610,131.794 230.961,131.504 231.133 C 130.980 231.444,130.285 232.588,129.087 235.116 C 128.741 235.845,128.207 236.693,127.901 236.999 C 127.594 237.305,127.344 237.868,127.344 238.249 C 127.344 238.630,126.992 239.260,126.563 239.648 C 126.133 240.037,125.781 240.653,125.781 241.016 C 125.781 241.380,125.430 242.083,125.000 242.578 C 124.570 243.074,124.219 243.692,124.219 243.952 C 124.219 244.213,123.867 244.873,123.437 245.419 C 123.008 245.965,122.656 246.665,122.656 246.974 C 122.656 247.284,122.305 247.942,121.875 248.438 C 121.445 248.933,121.094 249.551,121.094 249.812 C 121.094 250.072,120.765 250.704,120.363 251.217 C 119.962 251.729,119.511 252.708,119.362 253.391 C 119.213 254.074,118.856 254.828,118.570 255.065 C 118.284 255.302,117.940 256.088,117.804 256.811 C 117.668 257.533,117.303 258.336,116.992 258.594 C 116.681 258.852,116.316 259.654,116.180 260.377 C 116.045 261.100,115.689 261.894,115.389 262.143 C 115.089 262.392,114.844 262.791,114.844 263.031 C 114.844 263.463,113.506 266.453,112.075 269.218 C 111.664 270.013,111.328 270.912,111.328 271.216 C 111.328 271.521,110.977 272.217,110.547 272.763 C 110.117 273.309,109.764 274.080,109.763 274.476 C 109.762 274.871,109.411 275.723,108.984 276.367 C 108.558 277.012,108.206 277.891,108.203 278.320 C 108.200 278.750,107.849 279.629,107.422 280.273 C 106.995 280.918,106.645 281.887,106.643 282.428 C 106.642 282.968,106.289 284.066,105.859 284.868 C 105.430 285.669,105.078 286.565,105.078 286.859 C 105.078 289.079,99.992 292.578,96.764 292.578 C 92.260 292.578,89.511 286.428,90.994 279.667 C 91.250 278.497,91.604 274.005,91.780 269.686 C 91.980 264.743,92.280 261.495,92.587 260.921 C 92.855 260.420,93.217 257.977,93.390 255.493 C 93.563 253.009,93.956 250.361,94.262 249.609 C 94.569 248.857,94.934 246.807,95.073 245.052 C 95.212 243.297,95.563 241.276,95.854 240.560 C 96.145 239.844,96.501 238.049,96.645 236.571 C 96.789 235.093,97.145 233.423,97.436 232.860 C 97.727 232.297,98.093 230.605,98.250 229.102 C 98.407 227.598,98.779 225.888,99.077 225.303 C 99.375 224.717,99.730 223.135,99.864 221.787 C 99.999 220.439,100.355 218.848,100.656 218.251 C 100.957 217.654,101.311 215.984,101.442 214.540 C 101.574 213.096,102.006 211.301,102.403 210.553 C 102.800 209.804,103.125 208.529,103.125 207.719 C 103.125 206.910,103.477 205.591,103.906 204.790 C 104.336 203.988,104.688 202.663,104.688 201.846 C 104.688 201.028,105.039 199.670,105.469 198.828 C 105.898 197.986,106.250 196.668,106.250 195.898 C 106.250 195.129,106.602 193.811,107.031 192.969 C 107.461 192.126,107.813 190.769,107.813 189.951 C 107.813 189.134,108.137 187.852,108.534 187.104 C 108.931 186.355,109.361 184.827,109.490 183.709 C 109.619 182.591,109.977 181.272,110.285 180.779 C 110.593 180.286,110.948 178.938,111.074 177.783 C 111.200 176.628,111.545 175.309,111.840 174.853 C 112.135 174.397,112.493 173.156,112.636 172.096 C 112.779 171.035,113.143 169.790,113.445 169.329 C 113.748 168.867,114.124 167.625,114.281 166.569 C 114.439 165.513,114.797 164.297,115.077 163.867 C 115.357 163.438,115.703 162.295,115.847 161.328 C 115.990 160.361,116.347 159.187,116.639 158.719 C 116.931 158.251,117.282 157.108,117.420 156.180 C 117.558 155.252,117.916 154.098,118.217 153.616 C 118.518 153.134,118.876 151.904,119.012 150.882 C 119.149 149.860,119.585 148.411,119.982 147.662 C 120.379 146.913,120.703 145.814,120.703 145.219 C 120.703 144.624,121.055 143.482,121.484 142.680 C 121.914 141.878,122.266 140.730,122.266 140.127 C 122.266 139.524,122.617 138.342,123.047 137.500 C 123.477 136.658,123.828 135.476,123.828 134.873 C 123.828 134.270,124.180 133.122,124.609 132.320 C 125.039 131.518,125.391 130.463,125.391 129.976 C 125.391 129.489,125.715 128.477,126.113 127.729 C 126.510 126.980,126.957 125.581,127.108 124.620 C 127.258 123.658,127.613 122.604,127.896 122.276 C 128.180 121.948,128.527 120.920,128.668 119.992 C 128.809 119.064,129.164 117.921,129.457 117.453 C 129.751 116.985,130.111 115.898,130.258 115.039 C 130.406 114.180,130.773 113.093,131.075 112.625 C 131.376 112.157,131.738 111.014,131.879 110.086 C 132.020 109.158,132.367 108.130,132.651 107.802 C 132.934 107.474,133.289 106.420,133.439 105.459 C 133.589 104.497,134.037 103.098,134.434 102.350 C 134.831 101.601,135.156 100.589,135.156 100.102 C 135.156 99.615,135.508 98.560,135.938 97.758 C 136.367 96.957,136.719 95.785,136.719 95.154 C 136.719 94.523,136.982 93.716,137.304 93.360 C 137.626 93.005,138.038 91.917,138.220 90.943 C 138.402 89.969,138.841 88.757,139.197 88.249 C 139.553 87.742,139.844 86.879,139.844 86.333 C 139.844 85.787,140.195 84.684,140.625 83.882 C 141.055 83.081,141.407 82.029,141.409 81.544 C 141.410 81.060,141.761 80.137,142.188 79.492 C 142.614 78.848,142.965 77.878,142.966 77.338 C 142.968 76.798,143.295 75.743,143.693 74.994 C 144.091 74.245,144.545 72.930,144.702 72.070 C 144.859 71.211,145.215 70.244,145.491 69.922 C 145.768 69.600,146.118 68.651,146.268 67.814 C 146.418 66.977,146.779 65.922,147.070 65.470 C 147.361 65.018,147.722 63.945,147.872 63.086 C 148.023 62.227,148.365 61.260,148.633 60.938 C 148.901 60.615,149.243 59.648,149.393 58.789 C 149.544 57.930,149.905 56.857,150.196 56.405 C 150.487 55.953,150.852 54.902,151.008 54.069 C 151.165 53.236,151.616 52.024,152.012 51.375 C 152.408 50.726,152.732 49.682,152.733 49.054 C 152.734 48.427,152.998 47.622,153.319 47.267 C 153.641 46.911,154.053 45.823,154.235 44.849 C 154.417 43.876,154.857 42.663,155.213 42.156 C 155.568 41.648,155.859 40.825,155.859 40.327 C 155.859 39.829,156.211 38.733,156.641 37.891 C 157.070 37.048,157.423 35.957,157.424 35.465 C 157.426 34.973,157.776 34.043,158.203 33.398 C 158.630 32.754,158.980 31.872,158.982 31.440 C 158.983 31.007,159.336 29.997,159.766 29.195 C 160.195 28.393,160.547 27.426,160.547 27.046 C 160.547 26.666,160.898 25.700,161.328 24.898 C 161.758 24.096,162.109 23.129,162.109 22.750 C 162.109 22.370,162.438 21.446,162.839 20.697 C 163.240 19.949,163.699 18.721,163.859 17.969 C 164.019 17.217,164.369 16.338,164.638 16.016 C 164.907 15.693,165.243 14.819,165.384 14.072 C 165.525 13.325,166.002 11.968,166.443 11.057 C 167.908 8.030,167.451 7.402,164.063 7.787 M300.317 215.595 C 299.310 215.736,298.167 216.118,297.778 216.444 C 297.389 216.770,296.631 217.228,296.094 217.463 C 293.353 218.659,285.359 226.737,284.158 229.523 C 283.872 230.185,283.365 230.954,283.030 231.231 C 282.696 231.509,282.422 232.045,282.422 232.422 C 282.422 232.799,282.158 233.326,281.836 233.594 C 279.384 235.629,282.104 235.091,285.250 232.919 C 286.268 232.216,287.235 231.637,287.398 231.634 C 287.562 231.630,288.486 231.100,289.453 230.456 C 290.420 229.812,291.543 229.068,291.949 228.803 C 292.355 228.538,293.146 227.964,293.707 227.528 C 294.268 227.092,295.506 226.214,296.458 225.575 C 300.162 223.092,304.688 218.138,304.688 216.567 C 304.688 215.245,303.967 215.084,300.317 215.595 M388.281 233.398 C 387.314 234.122,386.302 234.725,386.031 234.740 C 385.761 234.754,385.238 235.117,384.870 235.547 C 384.502 235.977,384.021 236.329,383.800 236.331 C 383.579 236.332,382.256 237.122,380.859 238.086 C 379.463 239.050,378.190 239.840,378.031 239.841 C 377.873 239.843,376.730 240.547,375.492 241.406 C 374.255 242.265,373.044 242.968,372.802 242.968 C 372.559 242.969,372.134 243.243,371.856 243.577 C 371.579 243.912,370.810 244.439,370.148 244.748 C 369.487 245.058,368.418 245.662,367.773 246.091 C 367.129 246.520,365.898 247.226,365.039 247.660 C 364.180 248.094,362.773 248.877,361.914 249.400 C 361.055 249.923,359.912 250.540,359.375 250.773 C 358.086 251.330,357.887 251.437,356.055 252.546 C 355.195 253.066,353.833 253.780,353.027 254.132 C 352.222 254.484,351.563 254.910,351.563 255.078 C 351.563 255.246,351.093 255.502,350.519 255.646 C 349.945 255.790,349.043 256.248,348.513 256.665 C 347.984 257.081,347.383 257.422,347.177 257.422 C 346.971 257.422,346.356 257.773,345.810 258.203 C 345.263 258.633,344.512 258.984,344.141 258.984 C 343.769 258.984,343.018 259.336,342.472 259.766 C 341.925 260.195,341.182 260.547,340.820 260.547 C 340.458 260.547,339.715 260.898,339.169 261.328 C 338.623 261.758,337.872 262.109,337.500 262.109 C 337.128 262.109,336.405 262.434,335.893 262.831 C 335.380 263.228,334.434 263.681,333.789 263.838 C 333.145 263.995,332.354 264.351,332.031 264.629 C 331.709 264.908,330.789 265.346,329.986 265.604 C 329.183 265.862,328.426 266.236,328.303 266.435 C 328.180 266.634,327.691 266.797,327.217 266.797 C 326.743 266.797,325.743 267.125,324.994 267.526 C 324.245 267.927,323.020 268.390,322.271 268.554 C 321.523 268.718,320.556 269.076,320.123 269.349 C 319.690 269.622,318.723 269.973,317.974 270.130 C 317.226 270.287,316.210 270.679,315.718 271.001 C 315.226 271.324,313.730 271.722,312.392 271.886 C 311.055 272.051,309.258 272.460,308.398 272.794 C 306.212 273.646,296.170 273.656,293.945 272.808 C 293.086 272.480,291.680 272.040,290.820 271.830 C 289.961 271.619,288.543 271.104,287.670 270.684 C 286.796 270.265,285.895 269.922,285.667 269.922 C 285.439 269.922,285.047 269.675,284.797 269.374 C 284.547 269.073,283.915 268.719,283.393 268.588 C 282.376 268.333,280.155 266.929,279.102 265.876 C 278.749 265.523,278.341 265.233,278.195 265.232 C 277.167 265.224,269.740 256.632,269.323 254.969 C 269.184 254.415,268.822 253.868,268.519 253.751 C 268.217 253.635,267.969 253.220,267.969 252.829 C 267.969 252.438,267.625 251.443,267.204 250.618 C 266.783 249.793,266.324 248.351,266.183 247.413 L 265.928 245.708 264.311 245.942 C 263.423 246.071,262.031 246.509,261.218 246.916 C 260.406 247.323,259.345 247.656,258.860 247.656 C 258.375 247.656,257.327 247.988,256.532 248.393 C 255.737 248.799,254.444 249.251,253.658 249.398 C 252.872 249.546,251.860 249.897,251.408 250.180 C 250.956 250.462,249.883 250.816,249.023 250.966 C 248.164 251.115,247.197 251.465,246.875 251.741 C 246.553 252.018,245.586 252.368,244.727 252.518 C 243.867 252.669,242.794 253.030,242.342 253.321 C 241.890 253.612,240.836 253.976,239.999 254.130 C 239.161 254.285,237.864 254.737,237.115 255.135 C 236.366 255.534,235.443 255.859,235.063 255.859 C 234.683 255.859,233.716 256.211,232.915 256.641 C 232.113 257.070,231.103 257.423,230.670 257.424 C 230.237 257.426,229.355 257.776,228.711 258.203 C 228.066 258.630,227.134 258.980,226.640 258.982 C 226.145 258.983,225.091 259.327,224.296 259.746 C 223.502 260.165,222.544 260.599,222.168 260.711 C 221.747 260.835,221.484 261.298,221.484 261.916 C 221.484 262.467,221.242 263.307,220.945 263.783 C 220.649 264.259,220.300 265.485,220.171 266.507 C 220.042 267.529,219.686 268.759,219.381 269.241 C 219.075 269.723,218.707 270.854,218.562 271.755 C 218.417 272.656,218.057 273.593,217.762 273.838 C 217.467 274.082,217.108 275.103,216.964 276.106 C 216.819 277.109,216.474 278.193,216.196 278.516 C 215.918 278.838,215.567 279.805,215.415 280.664 C 215.263 281.523,214.809 282.775,214.406 283.445 C 214.002 284.114,213.672 284.966,213.672 285.336 C 213.672 285.706,213.320 286.457,212.891 287.003 C 212.461 287.549,212.108 288.368,212.107 288.822 C 212.105 289.277,211.755 290.176,211.328 290.820 C 210.901 291.465,210.551 292.316,210.549 292.712 C 210.548 293.108,210.195 293.878,209.766 294.425 C 209.336 294.971,208.984 295.630,208.984 295.889 C 208.984 296.148,208.413 297.455,207.715 298.793 C 207.017 300.132,206.216 301.698,205.937 302.274 C 205.657 302.849,205.270 303.584,205.076 303.906 C 204.883 304.229,204.084 305.757,203.302 307.304 C 202.520 308.850,201.765 310.169,201.624 310.234 C 201.324 310.372,200.268 312.156,199.416 313.965 C 199.087 314.663,198.644 315.234,198.432 315.234 C 198.220 315.234,198.047 315.485,198.047 315.790 C 198.047 316.096,197.607 316.869,197.070 317.507 C 196.533 318.145,196.094 318.850,196.094 319.074 C 196.094 319.297,195.039 320.807,193.750 322.429 C 192.461 324.052,191.406 325.488,191.406 325.621 C 191.406 325.755,190.960 326.417,190.415 327.092 C 188.907 328.959,186.578 331.712,186.073 332.224 C 185.825 332.476,184.699 333.809,183.571 335.188 C 181.383 337.862,179.847 339.416,174.597 344.268 C 170.909 347.677,171.218 347.412,167.188 350.627 C 164.518 352.756,160.754 355.433,158.985 356.461 C 158.601 356.684,158.002 357.103,157.654 357.391 C 156.962 357.966,155.175 358.983,153.270 359.887 C 152.598 360.206,151.929 360.661,151.782 360.898 C 151.636 361.134,151.202 361.328,150.819 361.328 C 150.435 361.328,149.819 361.662,149.449 362.071 C 149.079 362.479,148.191 362.923,147.475 363.058 C 146.758 363.192,145.973 363.543,145.728 363.837 C 145.484 364.131,144.693 364.482,143.971 364.618 C 143.248 364.753,142.457 365.105,142.213 365.399 C 141.969 365.693,141.134 366.053,140.359 366.198 C 139.583 366.344,138.578 366.701,138.126 366.992 C 137.674 367.282,136.602 367.641,135.742 367.788 C 134.883 367.936,133.776 368.310,133.283 368.619 C 132.790 368.928,131.472 369.285,130.354 369.411 C 129.235 369.537,127.815 369.895,127.198 370.207 C 126.581 370.518,124.295 370.916,122.120 371.090 C 119.944 371.265,117.550 371.601,116.799 371.837 C 116.049 372.073,114.071 372.266,112.405 372.266 C 110.738 372.266,109.375 372.406,109.375 372.578 C 109.375 373.114,110.282 373.828,110.963 373.828 C 111.321 373.828,112.060 374.180,112.607 374.609 C 113.153 375.039,113.856 375.391,114.169 375.391 C 114.482 375.391,115.158 375.719,115.670 376.121 C 116.182 376.523,117.161 376.973,117.844 377.123 C 118.527 377.272,119.296 377.646,119.552 377.955 C 119.808 378.263,120.304 378.521,120.653 378.528 C 121.003 378.535,122.168 378.972,123.242 379.501 C 124.316 380.029,125.481 380.463,125.831 380.465 C 126.181 380.467,126.670 380.714,126.919 381.014 C 127.168 381.314,128.025 381.680,128.823 381.828 C 129.621 381.976,130.551 382.346,130.889 382.649 C 131.228 382.953,132.282 383.355,133.233 383.543 C 134.183 383.730,135.488 384.169,136.133 384.518 C 136.777 384.866,137.730 385.153,138.250 385.154 C 138.771 385.155,139.502 385.433,139.876 385.771 C 140.249 386.109,141.494 386.524,142.641 386.692 C 143.788 386.860,145.254 387.285,145.898 387.637 C 146.543 387.989,147.649 388.278,148.355 388.279 C 149.062 388.280,150.330 388.633,151.172 389.063 C 152.014 389.492,153.330 389.844,154.096 389.844 C 154.862 389.844,156.489 390.195,157.711 390.625 C 158.934 391.055,160.731 391.414,161.705 391.423 C 162.679 391.433,164.180 391.717,165.039 392.055 C 165.898 392.393,168.586 392.820,171.011 393.004 C 173.436 393.188,176.249 393.634,177.261 393.996 C 180.047 394.991,217.966 395.041,222.070 394.055 C 223.574 393.694,226.475 393.278,228.516 393.130 C 230.557 392.983,232.725 392.610,233.334 392.302 C 233.944 391.994,235.965 391.598,237.827 391.422 C 239.688 391.246,241.914 390.826,242.773 390.490 C 243.633 390.153,244.996 389.870,245.802 389.861 C 246.609 389.851,247.924 389.492,248.726 389.063 C 249.528 388.633,250.765 388.281,251.475 388.281 C 252.185 388.281,253.455 387.930,254.297 387.500 C 255.139 387.070,256.409 386.719,257.119 386.719 C 257.829 386.719,259.066 386.367,259.868 385.938 C 260.669 385.508,261.721 385.156,262.206 385.155 C 262.690 385.154,263.661 384.802,264.365 384.374 C 265.068 383.945,265.950 383.594,266.324 383.594 C 266.698 383.594,267.616 383.266,268.365 382.865 C 269.114 382.464,270.342 382.005,271.094 381.845 C 271.846 381.685,272.725 381.329,273.047 381.055 C 273.369 380.780,274.248 380.426,275.000 380.268 C 276.182 380.019,277.898 379.271,280.078 378.056 C 280.400 377.876,281.104 377.535,281.641 377.299 C 282.178 377.063,282.881 376.708,283.203 376.509 C 283.525 376.311,284.121 376.040,284.527 375.906 C 284.933 375.771,286.040 375.249,286.989 374.745 C 287.937 374.241,288.896 373.828,289.119 373.828 C 289.343 373.828,289.972 373.477,290.518 373.047 C 291.065 372.617,291.818 372.266,292.192 372.266 C 292.567 372.266,293.100 371.992,293.378 371.657 C 293.656 371.322,294.424 370.790,295.086 370.475 C 296.724 369.694,297.909 368.987,298.728 368.303 C 299.105 367.987,299.854 367.521,300.391 367.266 C 301.522 366.729,302.020 366.427,305.497 364.168 C 306.910 363.251,308.263 362.500,308.505 362.500 C 308.747 362.500,309.086 362.276,309.258 362.002 C 309.430 361.729,310.010 361.203,310.547 360.834 C 311.084 360.466,312.578 359.371,313.867 358.403 C 315.156 357.434,316.461 356.523,316.767 356.378 C 317.073 356.233,317.626 355.837,317.997 355.499 C 318.368 355.160,319.305 354.443,320.081 353.906 C 320.856 353.369,322.148 352.342,322.952 351.623 C 323.756 350.905,325.908 349.048,327.734 347.498 C 333.171 342.882,334.002 342.123,336.888 339.132 C 338.406 337.558,341.143 334.726,342.969 332.838 C 344.795 330.950,346.641 328.908,347.070 328.301 C 347.847 327.204,348.930 325.906,350.312 324.414 C 351.909 322.691,357.422 315.630,357.422 315.309 C 357.422 315.120,357.773 314.647,358.203 314.258 C 358.633 313.869,358.984 313.384,358.984 313.179 C 358.984 312.975,359.380 312.324,359.863 311.732 C 360.780 310.609,360.914 310.415,362.977 307.227 C 363.671 306.152,364.380 305.213,364.552 305.140 C 364.723 305.067,365.129 304.451,365.453 303.773 C 365.778 303.094,366.475 301.836,367.003 300.977 C 367.531 300.117,368.240 298.887,368.579 298.242 C 368.917 297.598,369.623 296.367,370.147 295.508 C 370.670 294.648,371.388 293.286,371.741 292.480 C 372.095 291.675,372.520 291.016,372.685 291.016 C 372.851 291.016,373.185 290.414,373.427 289.680 C 373.670 288.945,374.123 288.132,374.434 287.874 C 374.745 287.616,375.000 287.058,375.000 286.635 C 375.000 286.212,375.352 285.418,375.781 284.872 C 376.211 284.326,376.563 283.535,376.563 283.114 C 376.563 282.694,376.914 281.903,377.344 281.357 C 377.773 280.810,378.125 280.100,378.125 279.779 C 378.125 279.457,378.458 278.646,378.864 277.976 C 379.271 277.306,379.724 276.187,379.872 275.488 C 380.019 274.790,380.295 274.219,380.485 274.219 C 380.674 274.219,381.026 273.472,381.267 272.559 C 381.507 271.646,381.927 270.547,382.199 270.117 C 382.472 269.688,382.822 268.651,382.977 267.814 C 383.133 266.977,383.502 265.922,383.798 265.470 C 384.094 265.018,384.454 263.905,384.599 262.996 C 384.744 262.087,385.096 261.149,385.381 260.913 C 385.666 260.676,386.017 259.662,386.161 258.659 C 386.306 257.657,386.664 256.561,386.957 256.224 C 387.251 255.888,387.653 254.569,387.851 253.294 C 388.049 252.020,388.483 250.273,388.815 249.414 C 389.147 248.555,389.427 247.144,389.436 246.278 C 389.445 245.413,389.720 244.323,390.047 243.857 C 390.374 243.390,390.796 241.777,390.985 240.271 C 391.174 238.765,391.636 236.730,392.011 235.747 C 393.263 232.469,391.233 231.190,388.281 233.398 M204.339 263.035 C 204.095 263.330,203.181 263.666,202.308 263.783 C 201.435 263.901,200.427 264.253,200.067 264.566 C 199.708 264.879,198.773 265.250,197.988 265.391 C 197.204 265.531,196.366 265.883,196.126 266.173 C 195.885 266.462,195.011 266.808,194.184 266.940 C 193.357 267.072,192.459 267.446,192.190 267.770 C 191.921 268.094,191.327 268.361,190.870 268.363 C 190.413 268.365,189.160 268.799,188.086 269.327 C 187.012 269.856,185.912 270.294,185.643 270.300 C 185.374 270.307,184.497 270.664,183.696 271.094 C 182.894 271.523,182.000 271.875,181.708 271.875 C 181.416 271.875,180.731 272.227,180.185 272.656 C 179.638 273.086,178.847 273.438,178.427 273.438 C 178.006 273.438,177.215 273.789,176.669 274.219 C 176.123 274.648,175.332 275.000,174.911 275.000 C 174.491 275.000,173.700 275.352,173.153 275.781 C 172.607 276.211,171.768 276.563,171.289 276.563 C 170.810 276.563,169.971 276.914,169.425 277.344 C 168.878 277.773,168.249 278.125,168.025 278.125 C 167.802 278.125,166.793 278.564,165.783 279.102 C 164.773 279.639,163.730 280.078,163.466 280.078 C 163.202 280.078,162.767 280.342,162.500 280.664 C 162.233 280.986,161.707 281.250,161.333 281.250 C 160.959 281.250,160.233 281.579,159.721 281.980 C 159.208 282.382,158.230 282.833,157.547 282.982 C 156.863 283.131,156.109 283.488,155.870 283.776 C 155.632 284.063,154.987 284.411,154.437 284.549 C 153.887 284.687,152.971 285.107,152.402 285.482 C 150.623 286.654,149.837 287.098,148.828 287.501 C 148.291 287.715,147.588 288.070,147.266 288.289 C 146.943 288.508,146.083 288.961,145.353 289.295 C 144.624 289.629,143.776 290.152,143.470 290.459 C 143.164 290.765,142.655 291.016,142.339 291.016 C 142.023 291.016,141.289 291.330,140.707 291.715 C 138.889 292.916,138.126 293.357,136.843 293.947 C 136.160 294.262,135.488 294.701,135.352 294.922 C 135.215 295.143,134.544 295.587,133.860 295.907 C 133.176 296.228,131.914 296.919,131.055 297.444 C 130.195 297.968,129.141 298.563,128.711 298.765 C 128.281 298.967,125.117 301.002,121.680 303.286 C 118.242 305.570,115.101 307.655,114.700 307.919 C 113.721 308.563,109.351 311.911,108.496 312.672 C 108.120 313.007,107.702 313.281,107.567 313.281 C 107.352 313.281,105.852 314.526,99.112 320.299 C 93.885 324.776,87.996 332.023,85.582 336.949 C 84.644 338.863,83.602 340.955,83.266 341.598 C 82.333 343.387,82.359 351.976,83.301 353.017 C 83.677 353.432,83.984 353.925,83.984 354.111 C 83.984 355.168,87.590 359.336,88.526 359.363 C 88.769 359.369,89.188 359.641,89.458 359.967 C 90.177 360.833,93.338 362.337,95.128 362.664 C 95.981 362.821,97.119 363.238,97.656 363.593 C 99.102 364.547,113.747 364.542,116.602 363.586 C 117.676 363.226,119.434 362.816,120.508 362.674 C 121.582 362.532,122.844 362.175,123.312 361.881 C 123.781 361.587,124.923 361.232,125.851 361.092 C 126.780 360.952,128.087 360.509,128.757 360.106 C 129.427 359.704,130.271 359.375,130.633 359.375 C 130.995 359.375,131.941 359.038,132.735 358.626 C 133.530 358.214,134.619 357.688,135.156 357.457 C 135.693 357.226,136.440 356.860,136.816 356.643 C 137.192 356.427,137.808 356.072,138.184 355.854 C 138.560 355.637,139.570 355.102,140.430 354.666 C 143.617 353.048,144.343 352.604,144.648 352.089 C 144.820 351.800,145.162 351.563,145.409 351.563 C 145.982 351.563,148.009 350.188,153.125 346.328 C 160.269 340.937,168.342 332.963,174.310 325.402 C 175.756 323.570,177.168 321.807,177.447 321.484 C 177.726 321.162,178.475 320.107,179.112 319.141 C 179.749 318.174,180.930 316.532,181.736 315.492 C 182.543 314.452,183.203 313.412,183.203 313.179 C 183.203 312.947,183.495 312.434,183.852 312.040 C 184.592 311.222,185.266 310.117,186.116 308.327 C 186.441 307.644,186.888 306.973,187.109 306.836 C 187.331 306.699,187.769 306.028,188.084 305.344 C 188.399 304.661,188.835 303.794,189.055 303.418 C 189.274 303.042,189.631 302.427,189.849 302.051 C 190.066 301.675,190.579 300.639,190.988 299.750 C 191.397 298.861,191.923 298.015,192.155 297.872 C 192.388 297.728,192.578 297.282,192.578 296.880 C 192.578 296.478,192.857 295.871,193.197 295.531 C 193.537 295.190,193.994 294.255,194.212 293.452 C 194.430 292.649,194.836 291.729,195.113 291.406 C 195.390 291.084,195.735 290.261,195.880 289.578 C 196.025 288.894,196.396 288.126,196.705 287.870 C 197.013 287.614,197.271 287.206,197.278 286.964 C 197.285 286.722,197.722 285.645,198.251 284.570 C 198.779 283.496,199.213 282.397,199.215 282.127 C 199.217 281.858,199.570 280.982,200.000 280.180 C 200.430 279.378,200.781 278.412,200.781 278.032 C 200.781 277.652,201.133 276.685,201.563 275.883 C 201.992 275.082,202.344 273.977,202.344 273.428 C 202.344 272.880,202.695 271.741,203.125 270.898 C 203.555 270.056,203.906 268.739,203.906 267.973 C 203.906 267.207,204.147 266.233,204.442 265.810 C 205.676 264.037,205.583 261.537,204.339 263.035 " stroke="none" fill="#ec348c" fill-rule="evenodd"></path><path id="path1" d="M196.172 4.587 C 198.041 4.659,201.205 4.659,203.203 4.588 C 205.201 4.517,203.672 4.459,199.805 4.458 C 195.938 4.458,194.303 4.516,196.172 4.587 " stroke="none" fill="#ec3c93" fill-rule="evenodd"></path><path id="path2" d="M190.923 4.573 C 191.408 4.667,192.112 4.663,192.485 4.565 C 192.858 4.467,192.461 4.391,191.602 4.395 C 190.742 4.400,190.437 4.480,190.923 4.573 M207.520 4.577 C 208.110 4.666,209.077 4.666,209.668 4.577 C 210.259 4.487,209.775 4.414,208.594 4.414 C 207.412 4.414,206.929 4.487,207.520 4.577 M216.518 208.008 C 216.521 209.082,216.597 209.475,216.687 208.881 C 216.776 208.288,216.774 207.409,216.681 206.928 C 216.589 206.448,216.515 206.934,216.518 208.008 M389.360 222.151 C 389.846 222.245,390.549 222.241,390.923 222.143 C 391.296 222.046,390.898 221.969,390.039 221.974 C 389.180 221.978,388.874 222.058,389.360 222.151 M386.406 222.734 C 386.148 222.992,385.958 223.563,385.983 224.004 C 386.027 224.788,386.032 224.789,386.220 224.023 C 386.326 223.594,386.591 223.022,386.809 222.754 C 387.314 222.131,387.024 222.117,386.406 222.734 M198.331 395.204 C 199.025 395.290,200.255 395.292,201.066 395.207 C 201.876 395.122,201.309 395.052,199.805 395.050 C 198.301 395.048,197.638 395.118,198.331 395.204 " stroke="none" fill="#ec4494" fill-rule="evenodd"></path><path id="path3" d="" stroke="none" fill="#f0348c" fill-rule="evenodd"></path><path id="path4" d="" stroke="none" fill="#ec3494" fill-rule="evenodd"></path></g></svg>